M48
; DRILL file {KiCad 7.0.2} date Fri Oct 13 11:48:33 2023
; FORMAT={-:-/ absolute / inch / decimal}
; #@! TF.CreationDate,2023-10-13T11:48:33-04:00
; #@! TF.GenerationSoftware,Kicad,Pcbnew,7.0.2
; #@! TF.FileFunction,Plated,1,2,PTH
FMAT,2
INCH
; #@! TA.AperFunction,Plated,PTH,ViaDrill
T1C0.0100
; #@! TA.AperFunction,Plated,PTH,ComponentDrill
T2C0.0118
; #@! TA.AperFunction,Plated,PTH,ViaDrill
T3C0.0150
; #@! TA.AperFunction,Plated,PTH,ComponentDrill
T4C0.0157
; #@! TA.AperFunction,Plated,PTH,ComponentDrill
T5C0.0236
; #@! TA.AperFunction,Plated,PTH,ComponentDrill
T6C0.0295
; #@! TA.AperFunction,Plated,PTH,ComponentDrill
T7C0.0374
%
G90
G05
T1
X3.036Y1.1864
X3.086Y1.1864
X3.136Y1.1864
X3.186Y1.1864
X3.236Y1.1864
T2
X3.49Y2.7292
X3.49Y2.6899
X3.5254Y2.7292
X3.5254Y2.6899
X3.5609Y2.7292
X3.5609Y2.6899
T3
X0.1338Y0.5151
X0.1421Y1.0525
X0.1428Y0.8313
X0.1432Y0.9391
X0.1456Y0.6954
X0.1468Y0.5927
X0.181Y0.7612
X0.2365Y0.9883
X0.2523Y0.7923
X0.3389Y0.5852
X0.3448Y1.8585
X0.3464Y2.699
X0.3578Y2.4828
X0.3594Y0.497
X0.361Y2.3454
X0.3676Y1.3088
X0.3684Y1.8769
X0.3728Y0.1525
X0.3747Y0.2533
X0.3822Y0.7604
X0.3919Y1.8545
X0.3976Y2.6667
X0.398Y2.7285
X0.4129Y0.7982
X0.4149Y0.4876
X0.4157Y0.5738
X0.4171Y1.8872
X0.4208Y2.4411
X0.4212Y2.5521
X0.4228Y0.4309
X0.4247Y1.9226
X0.4468Y2.2683
X0.4468Y2.1289
X0.4547Y1.9399
X0.4712Y2.8179
X0.4913Y2.5539
X0.4913Y2.4439
X0.501Y2.1637
X0.5011Y1.932
X0.5054Y0.8608
X0.509Y0.2509
X0.511Y0.7702
X0.5153Y2.1037
X0.5184Y1.1753
X0.5212Y0.1659
X0.5247Y0.6466
X0.5247Y0.5525
X0.5283Y0.4202
X0.5405Y1.5053
X0.544Y1.7407
X0.544Y1.3643
X0.546Y2.3737
X0.5476Y1.6273
X0.5487Y2.7722
X0.5491Y1.8206
X0.5511Y1.2738
X0.5566Y2.16
X0.5645Y0.4954
X0.5708Y2.3179
X0.5763Y0.3694
X0.5818Y0.9828
X0.5826Y1.0568
X0.5881Y0.2553
X0.5968Y2.8009
X0.598Y2.1635
X0.5995Y0.7687
X0.5995Y0.6781
X0.6031Y1.1482
X0.6153Y0.5698
X0.6165Y2.2675
X0.631Y0.873
X0.631Y0.1675
X0.646Y2.8246
X0.646Y2.3137
X0.6503Y1.8293
X0.656Y2.3737
X0.6606Y1.7352
X0.6641Y1.6293
X0.6641Y0.4813
X0.6712Y1.5037
X0.6747Y1.2702
X0.6783Y1.1395
X0.6814Y1.3781
X0.6834Y2.1179
X0.696Y2.371
X0.6991Y0.584
X0.7094Y2.8541
X0.7094Y0.7876
X0.7094Y0.169
X0.7113Y0.6797
X0.7165Y2.1486
X0.721Y2.5587
X0.7259Y1.0564
X0.726Y2.4437
X0.7267Y0.8836
X0.731Y0.9816
X0.7438Y1.9925
X0.7476Y2.6013
X0.7617Y1.8277
X0.7633Y1.732
X0.7732Y0.523
X0.7834Y2.2907
X0.7948Y1.1466
X0.796Y1.9937
X0.8121Y0.7214
X0.8125Y0.4324
X0.8141Y0.8068
X0.8165Y0.6135
X0.8216Y2.6348
X0.8228Y1.6293
X0.8251Y2.4403
X0.8263Y2.5537
X0.8322Y0.2553
X0.8452Y1.5159
X0.846Y2.0214
X0.8468Y2.8655
X0.8472Y0.1746
X0.8558Y0.3222
X0.8582Y2.6352
X0.868Y1.3714
X0.8696Y2.3305
X0.8795Y0.519
X0.8854Y1.0541
X0.8854Y0.8939
X0.8881Y2.0494
X0.8889Y0.9844
X0.9027Y1.8242
X0.9027Y1.7407
X0.909Y2.2856
X0.9098Y0.2336
X0.9133Y1.1639
X0.9149Y1.6395
X0.9169Y1.2631
X0.9173Y2.4328
X0.9188Y0.3852
X0.92Y2.545
X0.9236Y0.8348
X0.9306Y1.5246
X0.9413Y0.4549
X0.9499Y0.6309
X0.9637Y0.7442
X0.9743Y1.3887
X0.9968Y0.3084
X1.0023Y1.284
X1.011Y1.847
X1.0176Y2.0482
X1.0247Y0.1466
X1.0318Y1.7718
X1.044Y0.523
X1.0476Y0.3537
X1.0503Y1.9368
X1.0507Y1.6568
X1.0566Y2.045
X1.0669Y2.9009
X1.072Y1.5332
X1.0751Y2.2309
X1.0751Y0.1903
X1.0759Y2.2793
X1.0893Y1.4112
X1.1102Y0.7667
X1.1137Y1.8364
X1.1153Y1.2824
X1.1198Y2.3517
X1.1229Y2.2656
X1.124Y2.3068
X1.126Y2.4037
X1.1283Y2.799
X1.1283Y2.019
X1.1295Y0.6431
X1.1295Y0.2631
X1.1346Y1.7509
X1.1432Y0.1501
X1.1456Y2.7457
X1.1484Y1.6064
X1.1494Y2.3471
X1.1519Y0.4324
X1.1661Y1.4899
X1.1711Y1.9806
X1.1818Y2.3495
X1.1838Y2.8627
X1.1869Y1.0994
X1.1956Y1.0072
X1.1956Y0.1919
X1.205Y1.9616
X1.2058Y0.9025
X1.2113Y0.3694
X1.22Y1.7458
X1.2216Y1.8486
X1.2302Y1.1777
X1.2363Y2.344
X1.2389Y1.6116
X1.2424Y1.9596
X1.2424Y0.2545
X1.246Y1.4757
X1.2511Y1.0805
X1.2617Y0.9513
X1.2643Y2.3173
X1.2669Y0.8608
X1.2919Y2.2896
X1.2932Y2.6856
X1.2932Y2.634
X1.3019Y1.0037
X1.3078Y2.8009
X1.3141Y0.9025
X1.3287Y2.1742
X1.3401Y1.171
X1.3401Y1.0769
X1.3417Y2.5828
X1.3481Y2.2334
X1.3574Y0.1675
X1.3594Y0.4116
X1.3613Y2.6856
X1.3629Y1.6726
X1.3629Y1.5872
X1.3629Y0.4931
X1.3629Y0.2687
X1.3688Y1.823
X1.3751Y0.8557
X1.385Y2.532
X1.3944Y2.0049
X1.3976Y0.9324
X1.4113Y1.0718
X1.422Y1.1604
X1.4358Y0.9899
X1.4381Y2.482
X1.4566Y1.7021
X1.4586Y1.5856
X1.4586Y0.873
X1.4621Y1.8383
X1.4759Y2.025
X1.4842Y2.4332
X1.4968Y1.0683
X1.5039Y0.9167
X1.5125Y0.5419
X1.5133Y1.96
X1.5141Y0.9915
X1.5141Y0.4116
X1.5196Y1.169
X1.5196Y0.1797
X1.5212Y0.286
X1.5263Y0.8608
X1.5491Y1.8348
X1.5527Y1.7021
X1.5543Y1.5785
X1.5629Y1.4549
X1.57Y0.6029
X1.5802Y2.5687
X1.609Y2.486
X1.6208Y2.2675
X1.6224Y1.2631
X1.6259Y1.7163
X1.6275Y0.7529
X1.6346Y0.2895
X1.6381Y1.8313
X1.6381Y1.5836
X1.6381Y0.5509
X1.6381Y0.4167
X1.6397Y0.6726
X1.6397Y0.1903
X1.6531Y2.4848
X1.6776Y2.4599
X1.6799Y1.3679
X1.6814Y1.4498
X1.691Y2.6687
X1.6936Y0.758
X1.7026Y2.4353
X1.7297Y2.4133
X1.7302Y1.6049
X1.7338Y1.725
X1.7409Y1.8242
X1.7489Y2.3903
X1.7633Y0.4828
X1.7653Y0.6135
X1.7653Y0.3816
X1.7704Y0.7092
X1.7705Y2.3694
X1.7755Y1.4112
X1.7755Y0.7931
X1.781Y0.1813
X1.7842Y0.2616
X1.7873Y1.3033
X1.7968Y1.2104
X1.8088Y2.3409
X1.8192Y1.7442
X1.8295Y1.8242
X1.8385Y1.6257
X1.8385Y1.5297
X1.8495Y2.8697
X1.861Y2.6087
X1.9047Y0.7143
X1.9062Y0.6171
X1.9082Y1.3033
X1.9082Y1.2187
X1.9098Y0.784
X1.9113Y1.4167
X1.9113Y0.4844
X1.9121Y0.8887
X1.9169Y0.3801
X1.9204Y0.2722
X1.9204Y0.1797
X1.9299Y1.1061
X1.9987Y1.8261
X2.0019Y1.5316
X2.0039Y1.6238
X2.0054Y1.7372
X2.0385Y1.4234
X2.0491Y0.61
X2.0527Y0.4915
X2.0562Y0.7143
X2.0578Y0.3781
X2.0613Y0.2753
X2.0629Y0.1797
X2.0665Y0.7876
X2.068Y0.8935
X2.0692Y1.1084
X2.0692Y0.9828
X2.0755Y1.3021
X2.0755Y1.2187
X2.085Y2.2427
X2.0854Y2.2787
X2.1121Y2.2139
X2.1314Y2.184
X2.1397Y1.6324
X2.141Y2.0981
X2.1545Y2.1551
X2.1554Y1.7458
X2.1606Y1.8399
X2.1713Y2.1244
X2.1818Y1.1049
X2.1834Y1.5281
X2.186Y2.3087
X2.1873Y0.9816
X2.1901Y1.4269
X2.1901Y0.2911
X2.1948Y1.2187
X2.1956Y0.7143
X2.1956Y0.375
X2.1956Y0.1746
X2.196Y1.3033
X2.2039Y0.8899
X2.2043Y0.5942
X2.2058Y0.786
X2.2094Y0.5001
X2.246Y2.4587
X2.271Y2.4837
X2.276Y2.4353
X2.2799Y1.0194
X2.306Y2.1087
X2.3066Y0.134
X2.3192Y2.3718
X2.3212Y2.3264
X2.3413Y2.8939
X2.3775Y2.5699
X2.412Y2.2254
X2.4361Y0.5356
X2.441Y2.4537
X2.451Y2.8487
X2.451Y2.7787
X2.451Y2.7187
X2.451Y2.6487
X2.4676Y2.3513
X2.473Y1.3867
X2.488Y2.231
X2.5208Y1.0061
X2.5208Y0.9635
X2.522Y1.1344
X2.522Y1.0919
X2.522Y1.049
X2.5229Y1.2681
X2.5229Y1.2209
X2.5229Y1.1773
X2.5472Y0.1261
X2.551Y2.8187
X2.556Y2.7487
X2.575Y1.0527
X2.5823Y0.4785
X2.5924Y0.6801
X2.611Y0.8787
X2.6125Y0.7222
X2.616Y2.2537
X2.616Y2.2187
X2.617Y1.1327
X2.631Y2.7487
X2.6373Y0.9984
X2.6435Y0.7512
X2.6625Y0.412
X2.6725Y0.7722
X2.6736Y0.5009
X2.6931Y2.7188
X2.701Y2.6343
X2.707Y0.9727
X2.711Y0.1328
X2.721Y2.4037
X2.721Y1.5087
X2.7299Y2.8163
X2.7305Y2.5627
X2.7452Y1.1214
X2.7633Y2.7966
X2.7842Y0.5045
X2.785Y0.8377
X2.7915Y2.5498
X2.796Y2.4037
X2.8027Y2.6785
X2.811Y0.3722
X2.8225Y2.5778
X2.8236Y0.8413
X2.8243Y0.8958
X2.841Y2.8237
X2.851Y2.8837
X2.8641Y0.1316
X2.871Y2.4037
X2.9015Y2.6268
X2.911Y0.4137
X2.9388Y0.9984
X2.941Y2.4037
X2.9633Y2.5005
X2.966Y2.3737
X2.9974Y0.8214
X3.001Y2.4087
X3.007Y2.1927
X3.031Y2.8237
X3.071Y0.5437
X3.091Y2.1931
X3.1172Y1.8277
X3.131Y2.8387
X3.1456Y2.5923
X3.176Y1.3774
X3.191Y2.3087
X3.1928Y0.4222
X3.1952Y0.2919
X3.201Y0.8901
X3.2019Y0.1458
X3.2032Y2.4483
X3.2382Y1.9907
X3.2503Y2.7372
X3.251Y1.3774
X3.257Y2.3087
X3.257Y2.2257
X3.257Y2.1407
X3.257Y2.0707
X3.2572Y1.6407
X3.2572Y1.5657
X3.2582Y1.4833
X3.263Y0.5815
X3.2712Y0.6155
X3.2815Y0.8486
X3.2872Y1.7857
X3.311Y2.3087
X3.326Y1.3774
X3.361Y1.2923
X3.366Y2.6837
X3.3665Y2.8647
X3.391Y1.9257
X3.391Y1.8537
X3.4022Y1.7857
X3.406Y2.6587
X3.406Y2.6237
X3.406Y2.5337
X3.4622Y1.6607
X3.4622Y1.6307
X3.4622Y1.5807
X3.4622Y1.5507
X3.4622Y1.4957
X3.4622Y1.4658
X3.4682Y2.2433
X3.4682Y2.2083
X3.4682Y2.1633
X3.4682Y2.1283
X3.485Y2.7927
X3.485Y2.6307
X3.491Y2.4287
X3.491Y2.3287
X3.548Y2.0767
X3.548Y1.7017
X3.551Y2.4287
X3.551Y2.3287
X3.567Y2.7907
X3.567Y2.6307
X3.578Y2.0767
X3.578Y1.7017
X3.608Y2.0767
X3.608Y1.7017
X3.611Y2.4287
X3.611Y2.3287
X3.6117Y0.7706
X3.6173Y2.6179
X3.6302Y0.6667
X3.638Y2.0767
X3.638Y1.7017
X3.656Y0.9637
X3.657Y2.6175
X3.671Y2.4287
X3.671Y2.3287
X3.6795Y2.7187
X3.696Y1.0587
X3.717Y2.6359
X3.7562Y0.5407
X3.7574Y0.7135
X3.7586Y0.3923
X3.761Y0.4547
X3.7621Y0.321
X3.8085Y0.411
X3.846Y0.8637
T4
X1.9899Y2.8114
X1.9899Y2.7583
X2.0234Y2.8114
X2.0234Y2.7583
X2.0568Y2.8114
X2.0568Y2.7583
X2.0903Y2.8114
X2.0903Y2.7583
X2.1238Y2.8114
X2.1238Y2.7583
X2.1572Y2.8114
X2.1572Y2.7583
X2.1907Y2.8114
X2.1907Y2.7583
X2.2242Y2.8114
X2.2242Y2.7583
T6
X3.8266Y2.4541
X3.8266Y2.3754
X3.8286Y2.7581
X3.8286Y2.6794
T7
X2.6426Y1.7727
X2.741Y1.7727
X3.771Y1.2379
X3.771Y1.1395
T5
G00X1.9368Y2.9457
M15
G01X1.9368Y2.9142
M16
G05
G00X1.9368Y2.8264
M15
G01X1.9368Y2.7673
M16
G05
G00X2.2773Y2.9457
M15
G01X2.2773Y2.9142
M16
G05
G00X2.2773Y2.8264
M15
G01X2.2773Y2.7673
M16
G05
T0
M30
