M48
; DRILL file {KiCad 7.0.7} date Sat Oct 14 18:49:21 2023
; FORMAT={-:-/ absolute / metric / decimal}
; #@! TF.CreationDate,2023-10-14T18:49:21-04:00
; #@! TF.GenerationSoftware,Kicad,Pcbnew,7.0.7
; #@! TF.FileFunction,Plated,1,2,PTH
FMAT,2
METRIC
; #@! TA.AperFunction,Plated,PTH,ViaDrill
T1C0.254
; #@! TA.AperFunction,Plated,PTH,ComponentDrill
T2C0.300
; #@! TA.AperFunction,Plated,PTH,ViaDrill
T3C0.381
; #@! TA.AperFunction,Plated,PTH,ComponentDrill
T4C0.400
; #@! TA.AperFunction,Plated,PTH,ComponentDrill
T5C0.600
; #@! TA.AperFunction,Plated,PTH,ComponentDrill
T6C0.750
; #@! TA.AperFunction,Plated,PTH,ComponentDrill
T7C0.950
; #@! TA.AperFunction,Plated,PTH,ViaDrill
T8C1.290
%
G90
G05
T1
X184.277Y-110.548
X185.547Y-110.548
X186.817Y-110.548
X188.087Y-110.548
X189.357Y-110.548
T2
X195.808Y-71.361
X195.808Y-72.361
X196.708Y-71.361
X196.708Y-72.361
X197.608Y-71.361
X197.608Y-72.361
T3
X110.56Y-127.6
X110.77Y-113.95
X110.79Y-119.57
X110.8Y-116.83
X110.86Y-123.02
X110.89Y-125.63
X111.76Y-121.35
X113.17Y-115.58
X113.57Y-120.56
X115.77Y-125.82
X115.92Y-93.478
X115.96Y-72.13
X116.25Y-77.62
X116.29Y-128.06
X116.33Y-81.11
X116.5Y-107.44
X116.52Y-93.01
X116.63Y-136.81
X116.68Y-134.25
X116.87Y-121.37
X117.117Y-93.58
X117.26Y-72.95
X117.27Y-71.38
X117.65Y-120.41
X117.7Y-128.3
X117.72Y-126.11
X117.756Y-92.75
X117.85Y-78.68
X117.86Y-75.86
X117.9Y-129.74
X117.949Y-91.849
X118.51Y-83.07
X118.51Y-86.61
X118.71Y-91.41
X119.13Y-69.11
X119.64Y-75.816
X119.64Y-78.61
X119.888Y-85.725
X119.89Y-91.61
X120.0Y-118.82
X120.09Y-134.31
X120.14Y-121.12
X120.25Y-87.25
X120.33Y-110.83
X120.4Y-136.47
X120.49Y-124.26
X120.49Y-126.65
X120.58Y-130.01
X120.89Y-102.45
X120.98Y-96.47
X120.98Y-106.03
X121.031Y-80.391
X121.07Y-99.35
X121.1Y-70.27
X121.11Y-94.44
X121.16Y-108.33
X121.3Y-85.82
X121.5Y-128.1
X121.66Y-81.81
X121.8Y-131.3
X121.94Y-115.72
X121.96Y-113.84
X122.1Y-134.2
X122.32Y-69.54
X122.35Y-85.73
X122.39Y-121.16
X122.39Y-123.46
X122.48Y-111.52
X122.79Y-126.21
X122.82Y-83.09
X123.19Y-118.51
X123.19Y-136.43
X123.57Y-68.94
X123.571Y-81.915
X123.68Y-94.22
X123.825Y-80.391
X123.94Y-96.61
X124.03Y-99.3
X124.03Y-128.46
X124.21Y-102.49
X124.3Y-108.42
X124.39Y-111.74
X124.47Y-105.68
X124.52Y-86.89
X124.841Y-80.46
X124.92Y-125.85
X125.18Y-68.19
X125.18Y-120.68
X125.18Y-136.39
X125.23Y-123.42
X125.36Y-86.11
X125.476Y-75.692
X125.6Y-113.85
X125.603Y-78.613
X125.62Y-118.24
X125.73Y-115.75
X126.055Y-90.074
X126.15Y-74.61
X126.51Y-94.26
X126.55Y-96.69
X126.8Y-127.4
X127.06Y-82.5
X127.35Y-111.56
X127.381Y-90.043
X127.79Y-122.36
X127.8Y-129.7
X127.84Y-120.19
X127.9Y-125.1
X128.03Y-73.76
X128.06Y-99.3
X128.12Y-78.7
X128.15Y-75.82
X128.3Y-134.2
X128.63Y-102.18
X128.65Y-89.34
X128.67Y-67.9
X128.68Y-136.25
X128.9Y-132.5
X128.96Y-73.75
X129.21Y-105.85
X129.25Y-81.488
X129.5Y-127.5
X129.65Y-113.91
X129.65Y-117.98
X129.72Y-88.63
X129.74Y-115.68
X130.09Y-94.35
X130.09Y-96.47
X130.25Y-82.63
X130.27Y-134.75
X130.36Y-111.12
X130.4Y-99.04
X130.45Y-108.6
X130.46Y-78.89
X130.5Y-130.9
X130.53Y-76.04
X130.62Y-119.48
X130.8Y-101.96
X131.07Y-129.13
X131.29Y-124.66
X131.64Y-121.78
X131.91Y-105.41
X132.48Y-132.85
X132.62Y-108.07
X132.84Y-93.77
X133.01Y-88.66
X133.19Y-136.96
X133.37Y-95.68
X133.68Y-127.4
X133.77Y-131.7
X133.84Y-91.49
X133.85Y-98.6
X134.0Y-88.74
X134.26Y-67.0
X134.39Y-101.74
X134.47Y-84.02
X134.47Y-135.85
X134.49Y-82.79
X134.83Y-104.84
X135.36Y-121.21
X135.45Y-94.04
X135.49Y-108.11
X135.605Y-80.95
X135.684Y-83.137
X135.711Y-82.092
X135.763Y-79.629
X135.82Y-69.59
X135.82Y-89.4
X135.85Y-124.35
X135.85Y-134.0
X135.98Y-96.21
X136.2Y-136.87
X136.26Y-70.944
X136.33Y-99.88
X136.357Y-81.067
X136.42Y-129.7
X136.78Y-102.84
X136.907Y-90.377
X137.18Y-81.006
X137.23Y-67.97
X137.31Y-112.76
X137.53Y-115.1
X137.53Y-135.81
X137.77Y-90.86
X137.79Y-117.76
X137.93Y-131.3
X138.15Y-96.34
X138.19Y-93.73
X138.41Y-110.77
X138.565Y-81.145
X138.63Y-99.75
X138.72Y-90.91
X138.72Y-134.22
X138.81Y-103.2
X138.94Y-113.24
X139.21Y-116.52
X139.275Y-81.825
X139.34Y-118.82
X139.977Y-82.527
X140.01Y-72.47
X140.01Y-73.78
X140.23Y-115.19
X140.38Y-69.54
X140.54Y-117.76
X140.91Y-85.46
X141.2Y-110.94
X141.2Y-113.33
X141.24Y-75.08
X141.405Y-83.955
X141.64Y-136.43
X141.69Y-130.23
X141.74Y-72.47
X141.78Y-98.2
X141.78Y-100.37
X141.78Y-128.16
X141.78Y-133.86
X141.93Y-94.38
X142.09Y-118.95
X142.34Y-76.37
X142.58Y-89.76
X142.66Y-117.0
X143.01Y-113.46
X143.28Y-111.21
X143.63Y-115.54
X143.69Y-77.64
X144.16Y-97.45
X144.21Y-100.41
X144.21Y-118.51
X144.3Y-93.99
X144.65Y-89.25
X144.86Y-78.88
X145.18Y-113.55
X145.36Y-117.4
X145.58Y-126.92
X145.6Y-90.9
X145.62Y-115.5
X145.62Y-130.23
X145.76Y-110.99
X145.76Y-136.12
X145.8Y-133.42
X145.93Y-118.82
X146.51Y-94.08
X146.6Y-97.45
X146.64Y-100.59
X146.86Y-103.73
X147.04Y-125.37
X147.3Y-75.438
X148.03Y-77.54
X148.33Y-83.09
X148.37Y-108.6
X148.46Y-97.09
X148.5Y-121.56
X148.68Y-133.33
X148.77Y-94.17
X148.77Y-100.46
X148.77Y-126.69
X148.77Y-130.1
X148.81Y-123.6
X148.81Y-135.85
X149.15Y-77.57
X149.773Y-78.204
X149.83Y-105.94
X149.87Y-103.86
X150.114Y-72.898
X150.18Y-121.43
X150.407Y-78.826
X151.097Y-79.386
X151.11Y-99.92
X151.2Y-96.87
X151.38Y-94.35
X151.584Y-79.971
X151.95Y-128.42
X152.0Y-125.1
X152.0Y-130.99
X152.13Y-122.67
X152.132Y-80.5
X152.26Y-104.84
X152.26Y-120.54
X152.4Y-136.08
X152.48Y-134.04
X152.56Y-107.58
X152.8Y-109.94
X153.105Y-81.225
X153.37Y-96.38
X153.63Y-94.35
X153.86Y-99.39
X153.86Y-101.83
X154.14Y-67.793
X154.432Y-74.422
X155.54Y-122.54
X155.58Y-125.01
X155.63Y-107.58
X155.63Y-109.73
X155.67Y-120.77
X155.71Y-104.7
X155.71Y-128.38
X155.73Y-118.11
X155.85Y-131.03
X155.94Y-133.77
X155.94Y-136.12
X156.18Y-112.59
X157.93Y-94.3
X158.01Y-101.78
X158.06Y-99.44
X158.1Y-96.56
X158.94Y-104.53
X159.21Y-125.19
X159.3Y-128.2
X159.39Y-122.54
X159.43Y-131.08
X159.52Y-133.69
X159.56Y-136.12
X159.65Y-120.68
X159.69Y-117.99
X159.72Y-112.53
X159.72Y-115.72
X159.88Y-107.61
X159.88Y-109.73
X160.12Y-83.72
X160.13Y-82.804
X160.71Y-73.672
X160.81Y-84.45
X161.3Y-85.21
X161.51Y-99.22
X161.544Y-87.393
X161.887Y-85.945
X161.91Y-96.34
X162.04Y-93.95
X162.314Y-86.724
X162.58Y-112.62
X162.62Y-101.87
X162.687Y-82.042
X162.72Y-115.75
X162.79Y-104.44
X162.79Y-133.29
X162.91Y-109.73
X162.93Y-122.54
X162.93Y-131.16
X162.93Y-136.25
X162.94Y-107.58
X163.14Y-118.08
X163.15Y-125.59
X163.19Y-120.72
X163.28Y-127.98
X164.211Y-78.232
X164.846Y-77.597
X164.973Y-78.828
X165.07Y-114.79
X165.735Y-87.122
X165.75Y-137.28
X166.07Y-80.44
X166.12Y-81.594
X166.63Y-67.18
X167.55Y-75.408
X168.426Y-84.16
X169.04Y-127.08
X169.164Y-78.359
X169.418Y-68.326
X169.418Y-70.104
X169.418Y-71.628
X169.418Y-73.406
X169.84Y-80.96
X169.977Y-105.461
X170.357Y-84.017
X171.19Y-115.13
X171.19Y-116.21
X171.22Y-111.87
X171.22Y-112.95
X171.22Y-114.04
X171.244Y-108.474
X171.244Y-109.674
X171.244Y-110.78
X171.251Y-101.739
X171.86Y-137.48
X171.958Y-69.088
X172.085Y-70.866
X172.568Y-113.944
X172.752Y-128.53
X173.01Y-123.41
X173.482Y-118.364
X173.52Y-122.339
X173.609Y-83.439
X173.609Y-84.328
X173.634Y-111.912
X173.99Y-70.866
X174.15Y-115.324
X174.308Y-121.602
X174.79Y-130.22
X175.044Y-121.069
X175.07Y-127.96
X175.566Y-71.627
X175.766Y-73.773
X175.92Y-115.976
X176.02Y-137.31
X176.276Y-79.629
X176.276Y-102.362
X176.5Y-69.15
X176.515Y-75.59
X176.89Y-112.2
X177.35Y-69.65
X177.88Y-127.87
X177.902Y-119.405
X178.065Y-75.919
X178.181Y-79.629
X178.35Y-72.65
X178.56Y-131.23
X178.881Y-119.315
X178.9Y-117.93
X179.125Y-76.085
X179.324Y-68.961
X179.91Y-137.34
X180.086Y-79.629
X180.649Y-68.211
X180.649Y-69.989
X180.859Y-73.963
X181.102Y-130.175
X181.806Y-115.324
X181.864Y-79.629
X182.43Y-77.17
X182.499Y-80.391
X183.295Y-119.82
X183.388Y-79.502
X183.54Y-84.988
X184.15Y-68.961
X185.166Y-126.873
X185.674Y-84.979
X186.339Y-94.259
X187.06Y-74.84
X187.833Y-105.664
X188.214Y-82.042
X188.26Y-129.96
X188.269Y-68.211
X188.32Y-133.27
X188.468Y-118.075
X188.49Y-136.98
X188.523Y-78.498
X189.274Y-89.685
X189.72Y-71.16
X189.738Y-105.664
X189.865Y-82.042
X189.89Y-84.15
X189.89Y-86.309
X189.89Y-88.087
X189.895Y-99.009
X189.895Y-100.914
X189.92Y-103.009
X190.042Y-125.914
X190.25Y-125.05
X190.512Y-119.13
X190.657Y-95.326
X191.262Y-82.042
X191.643Y-105.664
X192.532Y-107.86
X192.659Y-72.517
X193.294Y-91.77
X193.294Y-93.599
X193.578Y-95.326
X193.603Y-67.83
X193.675Y-73.152
X193.675Y-74.041
X193.675Y-76.327
X195.102Y-98.501
X195.102Y-99.263
X195.102Y-100.533
X195.102Y-101.295
X195.102Y-102.692
X195.102Y-103.454
X195.254Y-83.705
X195.254Y-84.594
X195.254Y-85.737
X195.254Y-86.626
X195.635Y-69.227
X195.635Y-74.18
X195.834Y-78.994
X195.834Y-81.534
X197.282Y-87.935
X197.282Y-97.46
X197.358Y-78.994
X197.358Y-81.534
X197.794Y-69.227
X197.794Y-74.18
X198.044Y-87.935
X198.044Y-97.46
X198.806Y-87.935
X198.806Y-97.46
X198.882Y-78.994
X198.882Y-81.534
X198.9Y-121.11
X199.04Y-74.19
X199.568Y-87.935
X199.568Y-97.46
X200.025Y-116.205
X200.05Y-74.2
X200.08Y-123.837
X200.406Y-78.994
X200.406Y-81.534
X200.62Y-71.63
X201.041Y-113.792
X201.574Y-73.732
X202.239Y-122.948
X202.57Y-126.95
X202.63Y-130.72
X202.692Y-129.134
X202.72Y-132.53
X203.897Y-130.246
X204.851Y-118.745
T4
X157.705Y-69.274
X157.705Y-70.624
X158.555Y-69.274
X158.555Y-70.624
X159.405Y-69.274
X159.405Y-70.624
X160.255Y-69.274
X160.255Y-70.624
X161.105Y-69.274
X161.105Y-70.624
X161.955Y-69.274
X161.955Y-70.624
X162.805Y-69.274
X162.805Y-70.624
X163.655Y-69.274
X163.655Y-70.624
T6
X204.357Y-78.35
X204.357Y-80.35
X204.408Y-70.628
X204.408Y-72.628
T7
X174.284Y-95.656
X176.784Y-95.656
X202.946Y-109.24
X202.946Y-111.74
T8
X203.509Y-101.739
T5
X156.355Y-65.864G85X156.355Y-66.664
G05
X156.355Y-68.894G85X156.355Y-70.394
G05
X165.005Y-65.864G85X165.005Y-66.664
G05
X165.005Y-68.894G85X165.005Y-70.394
G05
T0
M30
