G04 #@! TF.GenerationSoftware,KiCad,Pcbnew,7.0.2*
G04 #@! TF.CreationDate,2023-10-18T14:33:44-04:00*
G04 #@! TF.ProjectId,boardlock,626f6172-646c-46f6-936b-2e6b69636164,rev?*
G04 #@! TF.SameCoordinates,Original*
G04 #@! TF.FileFunction,Soldermask,Bot*
G04 #@! TF.FilePolarity,Negative*
%FSLAX46Y46*%
G04 Gerber Fmt 4.6, Leading zero omitted, Abs format (unit mm)*
G04 Created by KiCad (PCBNEW 7.0.2) date 2023-10-18 14:33:44*
%MOMM*%
%LPD*%
G01*
G04 APERTURE LIST*
G04 Aperture macros list*
%AMRoundRect*
0 Rectangle with rounded corners*
0 $1 Rounding radius*
0 $2 $3 $4 $5 $6 $7 $8 $9 X,Y pos of 4 corners*
0 Add a 4 corners polygon primitive as box body*
4,1,4,$2,$3,$4,$5,$6,$7,$8,$9,$2,$3,0*
0 Add four circle primitives for the rounded corners*
1,1,$1+$1,$2,$3*
1,1,$1+$1,$4,$5*
1,1,$1+$1,$6,$7*
1,1,$1+$1,$8,$9*
0 Add four rect primitives between the rounded corners*
20,1,$1+$1,$2,$3,$4,$5,0*
20,1,$1+$1,$4,$5,$6,$7,0*
20,1,$1+$1,$6,$7,$8,$9,0*
20,1,$1+$1,$8,$9,$2,$3,0*%
G04 Aperture macros list end*
%ADD10RoundRect,0.250000X0.625000X-0.350000X0.625000X0.350000X-0.625000X0.350000X-0.625000X-0.350000X0*%
%ADD11O,1.750000X1.200000*%
%ADD12C,2.200000*%
%ADD13RoundRect,0.250000X-0.725000X0.600000X-0.725000X-0.600000X0.725000X-0.600000X0.725000X0.600000X0*%
%ADD14O,1.950000X1.700000*%
%ADD15RoundRect,0.250000X0.600000X0.725000X-0.600000X0.725000X-0.600000X-0.725000X0.600000X-0.725000X0*%
%ADD16O,1.700000X1.950000*%
%ADD17RoundRect,0.250000X-0.450000X0.350000X-0.450000X-0.350000X0.450000X-0.350000X0.450000X0.350000X0*%
%ADD18RoundRect,0.250000X0.337500X0.475000X-0.337500X0.475000X-0.337500X-0.475000X0.337500X-0.475000X0*%
%ADD19RoundRect,0.250000X0.350000X0.450000X-0.350000X0.450000X-0.350000X-0.450000X0.350000X-0.450000X0*%
%ADD20RoundRect,0.250000X0.450000X-0.350000X0.450000X0.350000X-0.450000X0.350000X-0.450000X-0.350000X0*%
%ADD21RoundRect,0.250000X-0.337500X-0.475000X0.337500X-0.475000X0.337500X0.475000X-0.337500X0.475000X0*%
%ADD22RoundRect,0.250000X-0.475000X0.337500X-0.475000X-0.337500X0.475000X-0.337500X0.475000X0.337500X0*%
%ADD23RoundRect,0.237500X-0.300000X-0.237500X0.300000X-0.237500X0.300000X0.237500X-0.300000X0.237500X0*%
%ADD24RoundRect,0.237500X0.237500X-0.250000X0.237500X0.250000X-0.237500X0.250000X-0.237500X-0.250000X0*%
%ADD25C,0.700000*%
%ADD26O,0.900000X1.700000*%
%ADD27O,0.900000X2.400000*%
%ADD28RoundRect,0.250001X1.074999X-0.462499X1.074999X0.462499X-1.074999X0.462499X-1.074999X-0.462499X0*%
%ADD29RoundRect,0.076200X0.550000X-0.350000X0.550000X0.350000X-0.550000X0.350000X-0.550000X-0.350000X0*%
%ADD30RoundRect,0.076200X0.465000X-0.450000X0.465000X0.450000X-0.465000X0.450000X-0.465000X-0.450000X0*%
%ADD31RoundRect,0.076200X0.390000X-0.525000X0.390000X0.525000X-0.390000X0.525000X-0.390000X-0.525000X0*%
%ADD32RoundRect,0.076200X0.915000X-0.570000X0.915000X0.570000X-0.915000X0.570000X-0.915000X-0.570000X0*%
%ADD33RoundRect,0.076200X1.400000X-0.430000X1.400000X0.430000X-1.400000X0.430000X-1.400000X-0.430000X0*%
%ADD34RoundRect,0.076200X1.665000X-0.350000X1.665000X0.350000X-1.665000X0.350000X-1.665000X-0.350000X0*%
%ADD35RoundRect,0.250000X0.475000X-0.337500X0.475000X0.337500X-0.475000X0.337500X-0.475000X-0.337500X0*%
%ADD36RoundRect,0.250000X-0.350000X-0.450000X0.350000X-0.450000X0.350000X0.450000X-0.350000X0.450000X0*%
%ADD37R,1.500000X0.450000*%
%ADD38RoundRect,0.150000X0.512500X0.150000X-0.512500X0.150000X-0.512500X-0.150000X0.512500X-0.150000X0*%
%ADD39RoundRect,0.237500X-0.250000X-0.237500X0.250000X-0.237500X0.250000X0.237500X-0.250000X0.237500X0*%
G04 APERTURE END LIST*
D10*
X204356800Y-80349600D03*
D11*
X204356800Y-78349600D03*
D12*
X149275800Y-69850000D03*
D10*
X204407600Y-72628000D03*
D11*
X204407600Y-70628000D03*
D12*
X112395000Y-106426000D03*
X168275000Y-122555000D03*
X112395000Y-135636000D03*
D13*
X202946000Y-109240000D03*
D14*
X202946000Y-111740000D03*
D15*
X176784000Y-95656400D03*
D16*
X174284000Y-95656400D03*
D17*
X116160000Y-109250000D03*
X116160000Y-111250000D03*
D18*
X179631500Y-134493000D03*
X177556500Y-134493000D03*
D19*
X158175200Y-73025000D03*
X156175200Y-73025000D03*
D18*
X180869500Y-90424000D03*
X178794500Y-90424000D03*
D20*
X118120000Y-111260000D03*
X118120000Y-109260000D03*
D21*
X195550000Y-122390000D03*
X197625000Y-122390000D03*
D19*
X197647500Y-120440000D03*
X195647500Y-120440000D03*
X197687500Y-118540000D03*
X195687500Y-118540000D03*
D20*
X163957000Y-82534000D03*
X163957000Y-80534000D03*
D21*
X170412500Y-85979000D03*
X172487500Y-85979000D03*
D22*
X201574400Y-71657300D03*
X201574400Y-73732300D03*
D20*
X168426000Y-86159600D03*
X168426000Y-84159600D03*
D23*
X170357500Y-84016600D03*
X172082500Y-84016600D03*
D24*
X173990000Y-72667500D03*
X173990000Y-70842500D03*
D18*
X176408500Y-92906600D03*
X174333500Y-92906600D03*
D25*
X157705400Y-70623800D03*
X158555400Y-70623800D03*
X159405400Y-70623800D03*
X160255400Y-70623800D03*
X161105400Y-70623800D03*
X161955400Y-70623800D03*
X162805400Y-70623800D03*
X163655400Y-70623800D03*
X163655400Y-69273800D03*
X162805400Y-69273800D03*
X161955400Y-69273800D03*
X161105400Y-69273800D03*
X160255400Y-69273800D03*
X159405400Y-69273800D03*
X158555400Y-69273800D03*
X157705400Y-69273800D03*
D26*
X156355400Y-66263800D03*
D27*
X156355400Y-69643800D03*
D26*
X165005400Y-66263800D03*
D27*
X165005400Y-69643800D03*
D17*
X183515000Y-84963000D03*
X183515000Y-86963000D03*
D28*
X175768000Y-87720500D03*
X175768000Y-84745500D03*
D21*
X170412500Y-88233000D03*
X172487500Y-88233000D03*
D28*
X179705000Y-87720500D03*
X179705000Y-84745500D03*
D29*
X203897400Y-133545600D03*
X203897400Y-132445600D03*
X203897400Y-131345600D03*
X203897400Y-130245600D03*
X203897400Y-129145600D03*
X203897400Y-128045600D03*
X203897400Y-126945600D03*
X203897400Y-125845600D03*
D30*
X191432400Y-135335600D03*
D31*
X191357400Y-131070600D03*
D32*
X203882400Y-137425600D03*
D33*
X203397400Y-124765600D03*
D34*
X192632400Y-137645600D03*
X192632400Y-124685600D03*
D35*
X165771600Y-75408100D03*
X165771600Y-73333100D03*
D17*
X193675000Y-69104000D03*
X193675000Y-71104000D03*
D36*
X175566200Y-68146900D03*
X177566200Y-68146900D03*
D17*
X188468000Y-118075200D03*
X188468000Y-120075200D03*
D19*
X115530000Y-119120000D03*
X113530000Y-119120000D03*
D37*
X116150000Y-116220000D03*
X116150000Y-117520000D03*
X113490000Y-116870000D03*
D21*
X190512500Y-119130000D03*
X192587500Y-119130000D03*
D38*
X116165000Y-112890000D03*
X116165000Y-114790000D03*
X113890000Y-113840000D03*
D36*
X142050000Y-68760000D03*
X144050000Y-68760000D03*
D21*
X174730500Y-90424000D03*
X176805500Y-90424000D03*
D36*
X177594000Y-130175000D03*
X179594000Y-130175000D03*
D19*
X174752000Y-132334000D03*
X172752000Y-132334000D03*
D36*
X177594000Y-132334000D03*
X179594000Y-132334000D03*
D17*
X181030000Y-119210000D03*
X181030000Y-121210000D03*
D19*
X174752000Y-130175000D03*
X172752000Y-130175000D03*
D21*
X183295000Y-119820000D03*
X185370000Y-119820000D03*
X172714500Y-134493000D03*
X174789500Y-134493000D03*
D39*
X178066700Y-77367100D03*
X179891700Y-77367100D03*
D20*
X167498800Y-70849400D03*
X167498800Y-68849400D03*
D17*
X184465600Y-74335100D03*
X184465600Y-76335100D03*
D20*
X166116000Y-82550000D03*
X166116000Y-80550000D03*
X118180000Y-116860000D03*
X118180000Y-114860000D03*
M02*
